/* XPM */
static char *ebd256a9c94d41dec8ed6f8dee7b416eY4S6t0VJQGgahbVJ[] = {
/* columns rows colors chars-per-pixel */
"32 32 9 1 ",
"  c #CABDDE",
". c #211F30",
"X c #8B6F4C",
"o c #28860F",
"O c #72A11D",
"+ c #A7975F",
"@ c #A4CC42",
"# c #C8C395",
"$ c white",
/* pixels */
"                                ",
"                                ",
"                                ",
"                                ",
"                                ",
"                                ",
"                                ",
"                                ",
"                                ",
"              ....              ",
"            ..@.Oo..            ",
"           .@OOOO.#X.           ",
"          .@O$$OOO#XX.          ",
"          .@$$$O.o#+X.          ",
"         .oO$$OOO#+++X.         ",
"         ..OOOOOo#+++X.         ",
"         .ooOO.o#++++X.         ",
"         .o.oo++X++++X.         ",
"          .+++XX+++++.          ",
"          .XXXXXX+++X.          ",
"           .XXXXXXXX.           ",
"            ..XXXX..            ",
"              ....              ",
"                                ",
"                                ",
"                                ",
"                                ",
"                                ",
"                                ",
"                                ",
"                                ",
"                                "
};
