/* XPM */
static char *_ce7a89f64e643a0dc4d1c5a1576d4be3f5aKqPgvJ6EUpnz[] = {
/* columns rows colors chars-per-pixel */
"32 32 3 1 ",
"  c #CABDDE",
". c #211F30",
"X c white",
/* pixels */
"                                ",
"                                ",
"                                ",
"                                ",
"                                ",
"                                ",
"         ...............        ",
"        .XXXXXXXXXXXXXXX.       ",
"       .XXXX.........XXXX.      ",
"       .XX.............XX.      ",
"       .X...............X.      ",
"       .X..X.........X..X.      ",
"       .X..X.........X..X.      ",
"       .X..X.........X..X.      ",
"       .X...............X.      ",
"       .XX.............XX.      ",
"       .XXXX.........XXXX.      ",
"       .XXXXXX.....XXXXXX.      ",
"       .XXXXXXX...XXXXXXX.      ",
"       .XXXXXXX...XXXXXXX.      ",
"       .XXXXXX.....XXXXXX.      ",
"       .XXXX.........XXXX.      ",
"       .XXXX.........XXXX.      ",
"       ..XXXXXXXXXXXXXXX..      ",
"       ...................      ",
"        .................       ",
"                                ",
"                                ",
"                                ",
"                                ",
"                                ",
"                                "
};
