/* XPM */
static char *_8ca4f67e1fa42fe907dc3067500fad6[] = {
/* columns rows colors chars-per-pixel */
"32 32 9 1 ",
"  c #CABDDE",
". c #211F30",
"X c #28860F",
"o c #72A11D",
"O c #A4CC42",
"+ c #BA3FAF",
"@ c #EA71BD",
"# c #F89CC0",
"$ c #FBCDD6",
/* pixels */
"                                ",
"                                ",
"                                ",
"                                ",
"                                ",
"                                ",
"                                ",
"                                ",
"        ................        ",
"        .O$##########$O.        ",
"        .o#@.@@@@@@.@#o.        ",
"        .o#@@@@@@@@@@#o.        ",
"        .o#@@#@@@@#@@#o.        ",
"        .o#@@.@@@@.@@#o.        ",
"        .o#+@@@@@@@@+#o.        ",
"        .Xo#@@@@@@@@#oX.        ",
"         .X#+@#@@#@+#X.         ",
"         .X#+@.@@.@+#X.         ",
"         .XX#+@@@@+#XX.         ",
"          .XX#++++#XX.          ",
"          .XXX####XXX.          ",
"           .XXXXXXXX.           ",
"            ..XXXX..            ",
"              ....              ",
"                                ",
"                                ",
"                                ",
"                                ",
"                                ",
"                                ",
"                                ",
"                                "
};
