/* XPM */
static char *ac688a6f798f4b76a7b6e34f4e6a440c[] = {
/* columns rows colors chars-per-pixel */
"33 32 9 1 ",
"  c #CABDDE",
". c #211F30",
"X c #28860F",
"o c #72A11D",
"O c #A4CC42",
"+ c #BA3FAF",
"@ c #EA71BD",
"# c #F89CC0",
"$ c #FBCDD6",
/* pixels */
"                                 ",
"                                 ",
"                                 ",
"                                 ",
"                                 ",
"                                 ",
"                                 ",
"                                 ",
"                                 ",
"                                 ",
"      ....................       ",
"      .O$##############$O.       ",
"      .o#@.@@@@@@@@@@.@#o.       ",
"      .o#@@@#@@@@@@#@@@#o.       ",
"      .o#+@@.@#@@#@.@@+#o.       ",
"      .Xo#@@@@.@@.@@@@#oX.       ",
"       .X#+++@@@@@@+++#X.        ",
"       .XX###++++++###XX.        ",
"        .XXXX######XXXX.         ",
"         ..XXXXXXXXXX..          ",
"           ..XXXXXX..            ",
"             ......              ",
"                                 ",
"                                 ",
"                                 ",
"                                 ",
"                                 ",
"                                 ",
"                                 ",
"                                 ",
"                                 ",
"                                 "
};
