/* XPM */
static char *_cab513beb0a4488e74fbfd9637d42c4e5hN9cPBUj4E3CaT[] = {
/* columns rows colors chars-per-pixel */
"33 32 9 1 ",
"  c #CABDDE",
". c #211F30",
"X c #28860F",
"o c #72A11D",
"O c #A4CC42",
"+ c #BA3FAF",
"@ c #EA71BD",
"# c #F89CC0",
"$ c #FBCDD6",
/* pixels */
"                                 ",
"                                 ",
"                                 ",
"                                 ",
"                                 ",
"                                 ",
"                                 ",
"                                 ",
"                                 ",
"                                 ",
"       ..................        ",
"       .O$############$O.        ",
"       .o#@.@@@@@@@@.@#o.        ",
"       .o#@@#@@@@@@#@@#o.        ",
"       .o#+@.@#@@#@.@+#o.        ",
"       .Xo#@@@.@@.@@@#oX.        ",
"        .X#++@@@@@@++#X.         ",
"        .XX##++++++##XX.         ",
"         .XXX######XXX.          ",
"          .XXXXXXXXXX.           ",
"           ..XXXXXX..            ",
"             ......              ",
"                                 ",
"                                 ",
"                                 ",
"                                 ",
"                                 ",
"                                 ",
"                                 ",
"                                 ",
"                                 ",
"                                 "
};
