/* XPM */
static char *_876842bf3d6435b8d04642711bcb417qQF0TyIl3LOiiTVb[] = {
/* columns rows colors chars-per-pixel */
"33 32 9 1 ",
"  c #CABDDE",
". c #211F30",
"X c #28860F",
"o c #72A11D",
"O c #A4CC42",
"+ c #BA3FAF",
"@ c #EA71BD",
"# c #F89CC0",
"$ c #FBCDD6",
/* pixels */
"                                 ",
"                                 ",
"                                 ",
"                                 ",
"                                 ",
"                                 ",
"                                 ",
"                                 ",
"                                 ",
"                                 ",
"        ..................       ",
"        .O$############$O.       ",
"        .o#@.@@@@@@@@.@#o.       ",
"        .o#@@#@@@@@@#@@#o.       ",
"        .o#+@.@#@@#@.@+#o.       ",
"        .Xo#@@@.@@.@@@#oX.       ",
"         .X#++@@@@@@++#X.        ",
"         .XX##++++++##XX.        ",
"          .XXX######XXX.         ",
"           .XXXXXXXXXX.          ",
"            ..XXXXXX..           ",
"              ......             ",
"                                 ",
"                                 ",
"                                 ",
"                                 ",
"                                 ",
"                                 ",
"                                 ",
"                                 ",
"                                 ",
"                                 "
};
