/* XPM */
static char *_37f8987e118409cbf98a5d361bab751[] = {
/* columns rows colors chars-per-pixel */
"33 32 9 1 ",
"  c #CABDDE",
". c #211F30",
"X c #28860F",
"o c #72A11D",
"O c #A4CC42",
"+ c #BA3FAF",
"@ c #EA71BD",
"# c #F89CC0",
"$ c #FBCDD6",
/* pixels */
"                                 ",
"                                 ",
"                                 ",
"                                 ",
"                                 ",
"                                 ",
"                                 ",
"                                 ",
"                                 ",
"                                 ",
"                                 ",
"      ......................     ",
"      .O$################$O.     ",
"      .o#@.@#@@@@@@@@#@.@#o.     ",
"      .o#+@@.@@#@@#@@.@@+#o.     ",
"      .Xo#++@@@.@@.@@@++#oX.     ",
"       .XX##++++++++++##XX.      ",
"        .XXX##########XXX.       ",
"         ..XXXXXXXXXXXX..        ",
"           ..XXXXXXXX..          ",
"             ........            ",
"                                 ",
"                                 ",
"                                 ",
"                                 ",
"                                 ",
"                                 ",
"                                 ",
"                                 ",
"                                 ",
"                                 ",
"                                 "
};
