/* XPM */
static char *e8665d4a471146a5aae7ed347a9a76b935p1PPjVXo4qZAds[] = {
/* columns rows colors chars-per-pixel */
"33 32 9 1 ",
"  c #CABDDE",
". c #211F30",
"X c #28860F",
"o c #72A11D",
"O c #A4CC42",
"+ c #BA3FAF",
"@ c #EA71BD",
"# c #F89CC0",
"$ c #FBCDD6",
/* pixels */
"                                 ",
"                                 ",
"                                 ",
"                                 ",
"                                 ",
"                                 ",
"                                 ",
"                                 ",
"                                 ",
"                                 ",
"       ....................      ",
"       .O$##############$O.      ",
"       .o#@.@@@@@@@@@@.@#o.      ",
"       .o#@@@#@@@@@@#@@@#o.      ",
"       .o#+@@.@#@@#@.@@+#o.      ",
"       .Xo#@@@@.@@.@@@@#oX.      ",
"        .X#+++@@@@@@+++#X.       ",
"        .XX###++++++###XX.       ",
"         .XXXX######XXXX.        ",
"          ..XXXXXXXXXX..         ",
"            ..XXXXXX..           ",
"              ......             ",
"                                 ",
"                                 ",
"                                 ",
"                                 ",
"                                 ",
"                                 ",
"                                 ",
"                                 ",
"                                 ",
"                                 "
};
